<?xml version="1.0" standalone="no"?>
<!DOCTYPE svg PUBLIC "-//W3C//DTD SVG 20010904//EN"
 "http://www.w3.org/TR/2001/REC-SVG-20010904/DTD/svg10.dtd">
<svg version="1.0" xmlns="http://www.w3.org/2000/svg"
 width="785.000000pt" height="137.000000pt" viewBox="0 0 785.000000 137.000000"
 preserveAspectRatio="xMidYMid meet">

<g transform="translate(0.000000,137.000000) scale(0.100000,-0.100000)"
fill="#000000" stroke="none">
<path d="M0 685 l0 -685 3925 0 3925 0 0 685 0 685 -3925 0 -3925 0 0 -685z
m2569 655 c225 -20 366 -67 397 -133 22 -46 13 -78 -37 -132 -79 -86 -265
-182 -493 -255 -95 -31 -106 -37 -100 -55 22 -71 11 -121 -33 -150 l-25 -17
22 -23 c16 -17 60 -150 60 -182 0 -2 -12 -3 -27 -1 -24 3 -28 10 -45 78 -10
41 -25 81 -32 88 -8 8 -35 17 -60 19 l-46 6 0 -97 c0 -96 0 -96 -25 -96 l-25
0 0 165 c0 91 -3 165 -6 165 -3 0 -25 -5 -50 -11 l-44 -11 0 -97 c0 -80 -4
-104 -22 -141 -29 -58 -75 -83 -141 -77 -86 7 -127 68 -127 187 0 67 -1 70
-24 70 -47 0 -56 -9 -56 -60 0 -71 -43 -147 -99 -177 -112 -59 -233 2 -262
131 -12 55 -13 56 -47 56 -29 0 -33 -3 -26 -17 4 -10 9 -36 12 -57 11 -99 -83
-158 -200 -125 -37 10 -45 22 -30 46 6 9 17 9 49 -2 100 -35 178 51 108 120
-23 23 -31 25 -130 25 -101 0 -105 -1 -95 -19 15 -30 12 -89 -7 -122 -18 -31
-76 -59 -121 -59 -42 0 -102 20 -102 33 1 31 15 36 58 22 80 -28 146 17 128
88 -3 15 -18 34 -33 44 -31 21 -216 48 -221 33 -2 -6 -38 -10 -83 -10 l-79 0
0 -75 0 -75 90 0 c89 0 90 0 90 -25 l0 -25 -115 0 -115 0 0 150 c0 119 -3 158
-16 182 -41 80 43 171 251 273 475 234 1376 394 1934 345z m3069 -301 c134
-14 216 -34 289 -70 66 -32 99 -68 109 -118 5 -26 11 -31 34 -31 25 0 35 -13
98 -122 39 -68 82 -147 97 -175 14 -29 27 -53 28 -53 1 0 1 79 -1 175 l-3 175
25 0 26 0 0 -215 0 -215 -27 0 c-25 0 -35 13 -105 138 -42 75 -86 156 -97 180
-12 23 -22 42 -24 42 -1 0 -1 -81 1 -180 l3 -180 -26 0 -25 0 -1 208 c0 157
-3 200 -11 177 -6 -16 -28 -53 -49 -82 l-39 -52 0 -126 0 -125 -27 0 c-24 0
-33 10 -66 70 -21 38 -41 71 -45 73 -4 3 -31 -11 -59 -30 -49 -31 -53 -36 -53
-73 0 -36 -3 -40 -25 -40 -20 0 -25 5 -25 25 0 14 -2 25 -5 25 -3 0 -36 -15
-73 -34 -167 -84 -469 -190 -730 -257 -341 -87 -610 -123 -917 -123 -186 1
-235 4 -319 22 -297 63 -353 197 -161 381 l65 63 0 188 0 189 55 6 c63 8 138
-1 176 -21 28 -14 59 -68 59 -103 0 -40 -28 -90 -62 -111 -54 -33 -23 -23 62
20 l80 40 0 60 0 60 110 0 c94 0 110 -2 110 -16 0 -11 5 -14 16 -10 10 4 65
22 123 41 493 160 1062 242 1409 204z m-5381 -183 c32 -16 63 -69 63 -105 0
-38 -28 -91 -58 -108 l-30 -17 28 -28 c20 -20 32 -48 45 -105 10 -43 20 -83
22 -90 4 -9 -5 -13 -25 -13 -29 0 -31 2 -47 72 -26 117 -44 137 -117 138 l-48
0 0 -105 0 -105 -30 0 -30 0 0 239 0 240 28 4 c50 9 169 -1 199 -17z m2437
-45 c30 -25 8 -36 -73 -36 -71 0 -82 -3 -106 -25 -42 -40 -58 -79 -58 -145 0
-66 16 -105 58 -145 24 -22 35 -25 105 -25 67 0 80 -3 84 -17 6 -24 -6 -30
-78 -35 -162 -13 -259 119 -215 293 14 56 72 121 124 140 46 16 136 14 159 -5z
m560 9 c17 -6 26 -17 26 -31 0 -18 -4 -20 -32 -13 -91 22 -148 -21 -122 -90 3
-9 36 -32 73 -51 74 -39 101 -73 101 -130 0 -94 -91 -146 -202 -114 -37 10
-45 22 -30 46 6 9 17 9 50 -2 83 -29 151 21 126 93 -6 19 -28 37 -69 59 -76
40 -105 73 -105 119 0 93 92 149 184 114z m4520 0 c17 -6 26 -17 26 -31 0 -18
-4 -20 -32 -13 -91 22 -148 -21 -122 -90 3 -9 36 -32 73 -51 74 -39 101 -73
101 -130 0 -94 -91 -146 -202 -114 -37 10 -45 22 -30 46 6 9 17 9 50 -2 83
-29 151 21 126 93 -6 19 -28 37 -69 59 -76 40 -105 73 -105 119 0 93 92 149
184 114z m-4774 -25 c0 -25 -1 -25 -85 -25 l-85 0 0 -70 0 -70 80 0 c73 0 80
-2 80 -20 0 -18 -7 -20 -80 -20 l-80 0 0 -75 0 -75 90 0 c89 0 90 0 90 -25 l0
-25 -115 0 -115 0 0 215 0 215 110 0 110 0 0 -25z m3660 0 c0 -25 -1 -25 -85
-25 l-85 0 0 -70 0 -70 80 0 c73 0 80 -2 80 -20 0 -18 -7 -20 -80 -20 l-80 0
0 -75 0 -75 90 0 c89 0 90 0 90 -25 l0 -25 -115 0 -115 0 0 215 0 215 110 0
110 0 0 -25z m130 -165 l0 -190 85 0 c84 0 85 0 85 -25 l0 -25 -110 0 -110 0
0 215 0 215 25 0 25 0 0 -190z m280 0 l0 -190 85 0 c84 0 85 0 85 -25 l0 -25
-110 0 -110 0 0 215 0 215 25 0 25 0 0 -190z m460 165 c0 -25 -1 -25 -85 -25
l-85 0 0 -70 0 -70 80 0 c73 0 80 -2 80 -20 0 -18 -7 -20 -80 -20 l-80 0 0
-75 0 -75 90 0 c89 0 90 0 90 -25 l0 -25 -115 0 -115 0 0 215 0 215 110 0 110
0 0 -25z"/>
<path d="M2075 1309 c-495 -38 -1060 -169 -1402 -325 -82 -37 -199 -110 -227
-142 l-19 -22 96 0 c97 0 97 0 97 -25 0 -25 -1 -25 -85 -25 l-85 0 0 -39 c0
-36 3 -39 43 -54 55 -21 164 -47 200 -47 27 0 28 1 13 22 -36 51 -9 139 49
164 64 27 145 12 145 -27 0 -18 -4 -20 -33 -13 -51 13 -90 6 -109 -17 -38 -45
-21 -82 53 -119 50 -26 70 -30 140 -30 l81 0 -26 31 c-50 59 -23 155 49 179
20 7 53 10 73 8 25 -3 54 3 88 19 178 81 568 97 539 21 -7 -17 -103 -64 -153
-74 l-31 -6 24 -37 c13 -20 27 -48 30 -63 7 -28 17 -30 73 -12 8 2 12 26 12
74 0 68 1 70 25 70 24 0 25 -2 25 -69 l0 -69 73 14 c126 24 117 18 117 74 0
47 2 50 25 50 23 0 25 -4 25 -45 0 -25 3 -45 6 -45 3 0 25 5 50 11 39 10 44
15 44 40 0 24 5 29 35 35 20 3 68 3 108 0 68 -7 79 -5 207 40 294 102 474 211
496 301 15 58 -97 117 -271 143 -98 15 -457 20 -600 9z"/>
<path d="M1434 875 c-45 -6 -112 -22 -150 -33 -115 -36 -123 -52 -30 -60 45
-4 64 0 107 22 57 28 98 32 148 15 36 -13 96 -1 171 33 43 20 44 21 20 28 -38
12 -175 9 -266 -5z"/>
<path d="M1080 781 c-33 -9 -55 -50 -46 -84 10 -40 89 -77 165 -77 l60 0 7 38
c4 20 13 49 20 63 l13 27 -59 6 c-33 4 -76 14 -95 21 -19 8 -36 15 -37 14 -2
-1 -14 -4 -28 -8z"/>
<path d="M1416 761 c-33 -5 -55 -15 -67 -30 -19 -24 -36 -88 -25 -98 6 -6 237
15 244 22 10 9 -12 64 -34 88 -26 28 -34 29 -118 18z"/>
<path d="M2193 748 l-43 -11 0 -58 0 -59 40 0 c54 0 86 17 101 53 10 24 10 34
-2 56 -17 30 -36 33 -96 19z"/>
<path d="M1870 674 c-125 -27 -113 -14 -108 -104 2 -60 8 -85 24 -106 43 -59
113 -51 146 16 13 25 18 59 18 123 0 48 -3 87 -7 86 -5 -1 -37 -7 -73 -15z"/>
<path d="M450 645 c0 -10 10 -15 28 -15 26 1 26 1 8 15 -25 19 -36 19 -36 0z"/>
<path d="M1410 606 c-52 -6 -94 -15 -93 -21 1 -5 4 -26 7 -46 11 -71 82 -125
146 -113 57 12 107 87 109 162 1 31 0 32 -36 31 -21 -1 -81 -7 -133 -13z"/>
<path d="M5215 1009 c-247 -21 -567 -82 -825 -156 l-165 -48 -3 -182 -2 -183
85 0 c84 0 85 0 85 -25 l0 -25 -110 0 -110 0 0 195 c0 111 -4 195 -9 195 -10
0 -169 -60 -213 -80 -21 -10 -28 -20 -28 -42 l0 -28 80 0 c73 0 80 -2 80 -20
0 -18 -7 -20 -80 -20 l-80 0 0 -75 0 -75 90 0 c89 0 90 0 90 -25 l0 -25 -115
0 -115 0 0 135 c0 74 -3 135 -6 135 -4 0 -33 -12 -65 -26 -55 -25 -72 -45 -50
-58 5 -3 17 -41 26 -83 10 -43 20 -83 22 -90 4 -9 -5 -13 -25 -13 -30 0 -31 2
-47 74 -9 41 -22 82 -29 92 -12 16 -18 14 -75 -20 l-61 -37 0 -55 c0 -53 0
-54 -30 -54 -27 0 -30 3 -30 32 l0 32 -55 -54 c-58 -57 -95 -120 -95 -159 0
-143 326 -218 786 -181 469 38 1048 191 1412 374 l92 46 0 145 0 144 -43 -27
-43 -26 4 -88 c4 -80 2 -93 -22 -142 -76 -155 -284 -136 -332 30 -15 53 -25
61 -58 48 -13 -5 -16 -23 -16 -90 0 -83 0 -84 -25 -84 -24 0 -25 2 -25 73 0
41 -2 76 -5 78 -2 3 -40 -2 -85 -10 l-80 -15 0 -63 c0 -61 -1 -63 -25 -63 -24
0 -25 3 -25 60 l0 60 -62 -7 c-35 -3 -64 -7 -66 -8 -2 -2 3 -26 12 -54 l15
-51 -28 0 c-24 0 -29 6 -42 48 l-15 47 -85 3 -85 3 -15 -48 c-12 -40 -19 -49
-42 -51 -32 -4 -31 -6 -12 48 8 23 15 45 15 49 0 4 -32 15 -72 25 -74 19 -128
57 -128 91 0 128 365 289 820 361 149 24 423 24 509 1 101 -27 150 -76 123
-123 -7 -13 5 -42 55 -128 36 -61 67 -113 68 -115 2 -2 18 7 34 19 31 21 31
22 31 111 0 88 0 89 25 89 23 0 24 -4 27 -62 l3 -63 28 42 c16 23 31 59 34 80
20 149 -323 232 -792 192z"/>
<path d="M5170 948 c-192 -18 -569 -108 -552 -132 4 -6 28 -73 52 -148 l44
-138 51 0 c98 0 95 -3 95 126 l0 114 -65 0 c-63 0 -65 1 -65 25 0 25 0 25 99
25 84 0 107 4 154 25 101 47 281 58 294 18 5 -13 -43 -41 -102 -58 l-40 -12
-3 -103 c-2 -91 -1 -102 13 -96 9 3 23 6 30 6 8 0 16 19 20 47 8 54 34 110 62
135 27 24 87 48 122 48 46 0 109 -29 135 -62 l23 -30 39 25 c51 32 106 94 102
115 -5 26 -86 60 -171 71 -90 13 -201 12 -337 -1z"/>
<path d="M5125 855 c-5 -1 -37 -8 -70 -15 -55 -12 -57 -14 -32 -21 41 -11 197
17 197 36 0 5 -78 6 -95 0z"/>
<path d="M3560 740 l0 -90 59 0 c74 0 111 30 111 92 0 61 -33 88 -110 88 l-60
0 0 -90z"/>
<path d="M4453 755 c-103 -51 -176 -114 -171 -148 4 -28 81 -67 138 -70 l43
-2 43 129 c24 71 42 131 40 133 -2 2 -44 -17 -93 -42z"/>
<path d="M5334 776 c-17 -8 -40 -26 -52 -41 -21 -26 -38 -84 -31 -104 4 -10
205 61 222 78 10 10 -8 43 -32 58 -30 19 -76 23 -107 9z"/>
<path d="M4973 773 l-63 -4 0 -109 c0 -125 -8 -117 100 -97 l65 12 3 103 c3
101 2 102 -20 100 -13 -1 -51 -3 -85 -5z"/>
<path d="M3920 745 l0 -24 43 18 c23 10 49 20 57 24 8 3 -11 6 -42 6 -55 1
-58 0 -58 -24z"/>
<path d="M4561 682 c-13 -42 -26 -85 -28 -94 -5 -16 2 -18 55 -18 l60 0 -29
92 c-16 50 -30 92 -32 94 -2 2 -14 -31 -26 -74z"/>
<path d="M5688 630 l3 -120 27 14 c71 38 70 34 23 127 -24 46 -46 87 -50 91
-3 4 -5 -47 -3 -112z"/>
<path d="M5450 666 c-14 -8 -66 -28 -116 -46 l-92 -32 10 -41 c11 -54 36 -88
80 -110 88 -44 175 37 177 165 2 78 -10 90 -59 64z"/>
<path d="M3560 570 c0 -16 3 -30 6 -30 8 0 94 51 94 56 0 2 -22 4 -50 4 -49 0
-50 -1 -50 -30z"/>
<path d="M5868 586 c-10 -7 -18 -17 -18 -23 0 -12 40 -96 44 -91 1 1 0 31 -3
65 -6 56 -7 60 -23 49z"/>
<path d="M4557 523 c18 -2 50 -2 70 0 21 2 7 4 -32 4 -38 0 -55 -2 -38 -4z"/>
<path d="M90 740 l0 -90 59 0 c74 0 111 30 111 92 0 61 -33 88 -110 88 l-60 0
0 -90z"/>
</g>
</svg>
